<?xml version="1.0" standalone="no"?>
<!DOCTYPE svg PUBLIC "-//W3C//DTD SVG 20010904//EN"
 "http://www.w3.org/TR/2001/REC-SVG-20010904/DTD/svg10.dtd">
<svg version="1.0" xmlns="http://www.w3.org/2000/svg"
 width="2212.000000pt" height="2212.000000pt" viewBox="0 0 2212.000000 2212.000000"
 preserveAspectRatio="xMidYMid meet">
<metadata>
Created by potrace 1.11, written by Peter Selinger 2001-2013
</metadata>
<g transform="translate(0.000000,2212.000000) scale(0.100000,-0.100000)"
fill="#000000" stroke="none">
<path d="M810 16070 l0 -1320 246 -120 c135 -66 247 -120 249 -120 2 0 108
-51 236 -114 252 -122 452 -219 619 -299 58 -27 215 -103 349 -168 134 -66
245 -119 246 -119 2 0 115 -55 252 -121 136 -67 289 -141 338 -164 121 -57
341 -164 560 -270 99 -48 234 -113 300 -145 66 -32 215 -104 330 -160 116 -56
264 -128 330 -160 210 -101 405 -195 590 -285 99 -48 205 -98 235 -112 30 -14
178 -86 329 -159 150 -74 275 -134 276 -134 2 0 105 -49 229 -110 124 -60 281
-136 348 -169 291 -140 431 -207 558 -268 74 -37 227 -111 340 -165 416 -201
460 -223 460 -231 0 -7 -126 -70 -460 -229 -58 -28 -210 -102 -339 -164 -128
-63 -235 -114 -236 -114 -2 0 -132 -63 -290 -140 -158 -77 -288 -140 -290
-140 -1 0 -117 -56 -256 -124 -140 -68 -297 -144 -349 -169 -52 -24 -176 -84
-275 -132 -197 -95 -369 -179 -600 -290 -82 -40 -226 -110 -320 -155 -182 -88
-384 -186 -583 -281 -67 -33 -224 -109 -348 -169 -124 -61 -227 -110 -229
-110 -2 0 -115 -55 -252 -121 -136 -67 -279 -136 -318 -154 -38 -18 -162 -78
-275 -132 -336 -164 -519 -253 -630 -306 -58 -27 -215 -103 -349 -168 -134
-66 -245 -119 -246 -119 -2 0 -126 -60 -276 -133 -151 -73 -325 -158 -386
-187 l-113 -54 0 -1318 c0 -1021 3 -1318 12 -1318 7 0 55 21 108 46 52 26 158
77 235 114 141 68 309 149 595 288 85 41 196 94 245 117 50 23 178 85 285 138
107 52 238 115 290 140 52 25 190 91 305 147 325 158 511 248 620 300 55 26
190 91 300 145 110 54 241 117 290 140 50 23 173 83 275 133 273 133 511 248
630 304 58 28 210 102 339 164 128 63 235 114 236 114 2 0 99 47 217 104 251
122 470 228 623 301 61 29 222 107 358 174 137 66 250 121 252 121 1 0 117 56
256 124 140 68 292 141 339 164 47 22 175 84 285 137 242 118 443 215 630 305
77 37 212 102 300 145 88 43 205 99 260 125 55 26 181 87 280 135 190 92 360
174 590 285 77 37 217 105 310 150 94 45 229 111 300 145 72 34 192 92 267
129 75 36 140 66 145 66 4 0 46 -19 93 -41 47 -23 135 -65 195 -94 118 -56
300 -145 679 -329 131 -64 240 -116 241 -116 2 0 115 -55 252 -121 136 -67
280 -136 318 -154 39 -18 160 -77 270 -130 110 -54 254 -123 320 -155 158 -76
399 -192 615 -298 96 -46 225 -108 285 -137 126 -60 301 -145 560 -270 99 -48
239 -116 310 -150 72 -35 216 -104 320 -155 105 -51 235 -114 290 -140 55 -26
188 -90 295 -143 107 -52 233 -113 280 -135 87 -41 284 -136 610 -294 102 -50
226 -110 275 -133 50 -23 180 -86 290 -140 110 -54 245 -119 300 -145 55 -26
174 -83 265 -128 219 -106 436 -211 595 -287 72 -34 216 -104 320 -155 105
-51 240 -116 300 -145 61 -29 184 -89 275 -133 91 -44 221 -107 290 -140 211
-101 407 -195 595 -287 99 -48 239 -116 310 -150 189 -91 409 -197 418 -202 4
-2 7 591 7 1319 l0 1324 -167 81 c-220 107 -598 291 -743 360 -63 31 -198 96
-300 146 -102 49 -221 106 -265 127 -44 21 -168 80 -275 132 -107 53 -251 122
-320 156 -159 76 -387 187 -605 292 -93 45 -201 97 -240 115 -38 18 -182 87
-318 154 -137 66 -250 121 -252 121 -2 0 -112 53 -246 119 -248 121 -432 210
-684 331 -77 37 -230 111 -340 165 -110 54 -236 114 -280 135 -44 21 -159 76
-255 123 -290 141 -489 237 -605 292 -60 29 -191 92 -290 140 -99 48 -225 109
-280 135 -55 26 -176 85 -270 130 -227 110 -457 221 -582 281 -57 27 -103 53
-103 57 0 4 31 21 68 39 61 29 258 124 592 285 69 33 217 106 330 160 113 55
237 115 276 133 39 18 191 92 338 164 147 72 269 131 271 131 1 0 108 51 236
114 129 62 286 138 349 168 295 142 408 196 570 275 96 47 225 109 285 138 61
29 187 90 280 135 94 45 233 113 310 150 293 141 427 206 653 316 128 63 235
114 237 114 1 0 121 58 266 129 145 71 302 147 349 169 47 22 160 76 253 121
92 44 242 118 335 162 92 45 205 99 251 121 46 22 194 93 328 159 135 65 246
119 248 119 4 0 553 266 575 279 13 7 15 167 18 1330 1 726 -1 1321 -5 1321
-5 0 -78 -34 -163 -76 -85 -42 -189 -92 -230 -112 -41 -19 -194 -93 -339 -163
-144 -71 -264 -129 -266 -129 -2 0 -110 -52 -240 -116 -131 -63 -283 -137
-339 -164 -117 -55 -357 -171 -636 -307 -107 -53 -235 -115 -285 -138 -49 -23
-180 -86 -290 -140 -110 -54 -236 -114 -280 -135 -44 -21 -161 -77 -260 -125
-213 -103 -427 -207 -580 -280 -60 -29 -200 -96 -310 -150 -110 -54 -245 -119
-300 -145 -55 -26 -176 -85 -270 -130 -278 -135 -473 -229 -590 -285 -60 -29
-231 -112 -379 -184 -147 -72 -269 -131 -271 -131 -2 0 -113 -54 -248 -119
-134 -66 -282 -137 -328 -159 -85 -40 -252 -121 -564 -272 -93 -45 -219 -106
-280 -135 -60 -29 -200 -96 -310 -150 -110 -54 -245 -119 -300 -145 -55 -26
-175 -84 -267 -129 -432 -209 -511 -247 -623 -301 -66 -31 -201 -97 -300 -145
-99 -48 -229 -111 -290 -140 -60 -29 -200 -96 -310 -150 -110 -53 -224 -108
-254 -122 -29 -15 -58 -26 -65 -26 -11 0 -66 26 -406 190 -96 47 -222 108
-280 135 -58 28 -228 111 -379 184 -150 74 -275 134 -276 134 -2 0 -119 57
-262 126 -142 70 -303 148 -358 174 -117 56 -322 154 -560 270 -93 45 -219
106 -280 135 -60 29 -186 90 -280 135 -93 45 -219 106 -280 135 -60 29 -180
86 -265 128 -85 41 -227 109 -315 152 -88 43 -209 101 -270 130 -60 29 -204
99 -320 155 -115 56 -259 126 -320 155 -60 29 -186 90 -280 135 -433 211 -545
265 -612 296 -40 19 -192 92 -339 164 -146 71 -268 130 -269 130 -2 0 -109 51
-237 114 -128 62 -280 136 -338 164 -137 65 -362 173 -580 279 -96 47 -211
102 -255 123 -44 21 -174 84 -290 140 -115 56 -264 128 -330 160 -114 54 -199
96 -615 298 -96 46 -215 104 -265 127 -49 23 -193 93 -320 155 -126 62 -257
125 -290 140 -33 15 -111 53 -174 84 -62 31 -117 56 -122 56 -5 0 -9 -572 -9
-1320z"/>
</g>
</svg>
